<?xml version="1.0" standalone="no"?>
<!DOCTYPE svg PUBLIC "-//W3C//DTD SVG 20010904//EN"
 "http://www.w3.org/TR/2001/REC-SVG-20010904/DTD/svg10.dtd">
<svg version="1.0" xmlns="http://www.w3.org/2000/svg"
 width="910.000000pt" height="910.000000pt" viewBox="0 0 910.000000 910.000000"
 preserveAspectRatio="xMidYMid meet">
<metadata>
Created by potrace 1.11, written by Peter Selinger 2001-2013
</metadata>
<g transform="translate(0.000000,910.000000) scale(0.100000,-0.100000)"
fill="#000000" stroke="none">
<path d="M4270 8673 c-1015 -82 -1929 -501 -2636 -1207 -664 -665 -1071 -1505
-1191 -2461 -25 -202 -25 -711 0 -920 100 -824 403 -1533 936 -2185 105 -129
393 -419 521 -525 551 -456 1192 -763 1860 -893 289 -57 294 -57 795 -57 500
0 505 0 795 56 791 152 1547 557 2130 1139 582 583 987 1339 1139 2130 56 290
56 295 56 795 0 501 0 506 -57 795 -130 668 -437 1309 -893 1860 -168 203
-473 490 -710 667 -481 359 -1058 616 -1648 733 -278 56 -442 72 -762 75 -159
1 -310 0 -335 -2z m672 -1985 c2 -2 5 -221 8 -488 l5 -485 359 -3 c245 -1 364
-6 373 -13 10 -9 13 -106 13 -508 0 -273 -4 -502 -8 -508 -6 -10 -96 -13 -373
-15 l-364 -3 -3 -544 c-2 -429 0 -546 10 -553 7 -4 153 -8 323 -8 l310 0 154
-411 c117 -312 152 -416 144 -428 -25 -40 -154 -135 -247 -180 -261 -129 -537
-180 -911 -167 -212 7 -223 8 -380 32 -678 106 -1056 440 -1130 1001 -11 83
-15 240 -15 670 l0 563 -227 2 -228 3 -3 454 c-1 315 1 458 9 467 6 7 38 22
72 33 286 96 499 308 595 594 25 73 62 239 62 280 0 69 93 186 165 206 25 8
1281 16 1287 9z"/>
<path d="M4177 6523 c-3 -5 -8 -30 -12 -58 -63 -443 -294 -781 -662 -968
l-103 -52 0 -292 0 -293 218 0 c119 0 222 -4 229 -8 9 -5 13 -183 16 -702 l3
-695 27 -100 c45 -173 94 -279 189 -407 150 -204 393 -338 682 -378 111 -16
326 -13 426 4 165 29 350 106 437 180 l38 34 -79 238 c-44 132 -85 253 -92
270 l-13 31 -108 -24 c-152 -34 -296 -36 -377 -4 -106 42 -170 121 -195 241
-9 40 -11 227 -9 670 l3 615 364 3 c277 2 367 5 373 15 9 14 11 638 2 661 -5
14 -47 16 -363 16 -196 0 -362 4 -368 8 -10 6 -13 122 -15 503 l-3 494 -302 3
c-166 1 -304 -1 -306 -5z"/>
</g>
</svg>
